# xmcd CD database file
#
# Track frame offsets:
#	150
#	22710
#	40228
#	59648
#	80205
#	99800
#	119468
#	142853
#	164365
#
# Disc length: 2413 seconds
#
# Revision: 0
# Processed by: cddbd v1.5.1PL0 Copyright (c) Steve Scherf et al.
# Submitted via: CDex 1.51
#
DISCID=6d096b09
DTITLE=In the Soup - ヘブン
DYEAR=2004
DGENRE=Rock
TTITLE0=Heaven
TTITLE1=よく晴れた月のない夜
TTITLE2=夏の記憶
TTITLE3=流星
TTITLE4=夕暮れ遥か
TTITLE5=むし 〜2004〜
TTITLE6=蛍
TTITLE7=夢鳥
TTITLE8=素晴らしい歌
EXTD=YEAR: 2004
EXTT0=
EXTT1=
EXTT2=
EXTT3=
EXTT4=
EXTT5=
EXTT6=
EXTT7=
EXTT8=
PLAYORDER=
